# xmcd
#
# Track frame offsets:
#	150
#	15507
#	29082
#	47032
#	64040
#	83110
#	96340
#	110902
#	126547
#	143375
#
# Disc length: 2106 seconds
#
# Revision: 3
# Processed by: cddbd v1.4PL0 Copyright (c) Steve Scherf et al.
# Submitted via: audiograbber 1.80.04
#
DISCID=8a08380a
DTITLE=Lionel Cartwright - I Watched It On The Radio
DYEAR=1990
DGENRE=Country
TTITLE0=I Watched It All (On My Radio)
TTITLE1=Old Coal Town
TTITLE2=Playing It Safe
TTITLE3=In The Long Run
TTITLE4=Say It's Not True
TTITLE5=I Refuse To Sing The Blues
TTITLE6=My Heart Is Set On You
TTITLE7=Let's Try Again
TTITLE8=Hard Act To Follow
TTITLE9=True Believer
EXTD=
EXTT0=
EXTT1=
EXTT2=
EXTT3=
EXTT4=
EXTT5=
EXTT6=
EXTT7=
EXTT8=
EXTT9=
PLAYORDER=
